<?xml version="1.0" standalone="no"?>
<!DOCTYPE svg PUBLIC "-//W3C//DTD SVG 20010904//EN"
 "http://www.w3.org/TR/2001/REC-SVG-20010904/DTD/svg10.dtd">
<svg version="1.0" xmlns="http://www.w3.org/2000/svg"
 width="1408.000000pt" height="768.000000pt" viewBox="0 0 1408.000000 768.000000"
 preserveAspectRatio="xMidYMid meet">

<g transform="translate(0.000000,768.000000) scale(0.100000,-0.100000)"
fill="#000000" stroke="none">
<path d="M4590 5179 c-227 -23 -424 -159 -534 -368 -19 -36 -75 -194 -126
-351 -50 -157 -161 -500 -246 -762 -85 -263 -154 -481 -154 -484 0 -3 -4 -4
-8 -2 -8 3 -381 426 -861 978 -108 123 -231 264 -274 312 l-78 88 -265 0 -264
0 0 -975 0 -975 253 0 252 0 0 615 c0 338 3 615 7 615 6 0 314 -350 956 -1087
l124 -143 223 0 223 0 11 33 c5 17 60 196 121 397 61 201 136 446 167 545 30
99 108 357 174 574 65 216 128 414 141 440 33 70 122 153 193 182 l60 24 3893
3 3892 2 0 173 0 172 -3907 0 c-2150 0 -3937 -3 -3973 -6z"/>
<path d="M5308 4276 c-336 -60 -584 -284 -670 -606 -31 -118 -31 -328 1 -445
77 -285 299 -508 586 -587 118 -32 364 -32 484 0 234 64 424 217 527 427 119
244 119 526 -1 770 -81 164 -196 279 -360 361 -49 24 -126 53 -170 65 -104 26
-292 33 -397 15z m242 -317 c186 -29 334 -170 385 -365 17 -66 19 -218 4 -284
-26 -113 -110 -236 -205 -299 -144 -95 -362 -99 -516 -8 -62 36 -141 124 -178
196 -59 118 -73 269 -36 406 47 180 202 325 376 354 76 12 96 12 170 0z"/>
<path d="M6600 3450 l0 -810 185 0 185 0 0 300 0 300 365 0 365 0 0 150 0 150
-365 0 -365 0 0 210 0 210 415 0 415 0 0 150 0 150 -600 0 -600 0 0 -810z"/>
<path d="M8050 3451 l0 -811 185 0 185 0 0 229 0 228 233 6 c338 8 445 40 588
174 110 104 160 231 160 408 0 171 -45 288 -151 396 -45 45 -88 77 -140 103
-142 70 -138 69 -622 73 l-438 4 0 -810z m828 479 c62 -27 123 -92 140 -148 7
-22 12 -71 12 -109 0 -129 -67 -214 -196 -248 -41 -11 -110 -15 -236 -15
l-178 0 0 276 0 276 203 -4 c184 -4 207 -6 255 -28z"/>
<path d="M9670 3451 l0 -811 183 0 182 0 -3 229 -3 228 238 6 c159 4 261 11
306 21 215 48 380 201 432 402 20 76 19 239 -1 317 -49 189 -195 333 -399 393
-52 15 -117 18 -497 21 l-438 4 0 -810z m811 485 c111 -41 169 -129 169 -257
0 -100 -33 -169 -102 -216 -67 -44 -123 -53 -328 -53 l-180 0 -1 33 c-4 244
-4 509 0 513 4 3 94 4 201 1 149 -3 206 -8 241 -21z"/>
<path d="M11122 4108 l3 -153 243 4 242 3 0 -661 0 -661 185 0 185 0 2 656 3
656 243 -1 242 -2 0 155 0 156 -675 0 -676 0 3 -152z"/>
</g>
</svg>
